<mxfile host="65bd71144e">
    <diagram id="ZM09xl-fuDKo_xaskiYn" name="ARQ">
        <mxGraphModel dx="1019" dy="1274" grid="0" gridSize="10" guides="1" tooltips="1" connect="1" arrows="1" fold="1" page="0" pageScale="1" pageWidth="850" pageHeight="1100" math="0" shadow="0">
            <root>
                <mxCell id="0"/>
                <mxCell id="1" parent="0"/>
                <mxCell id="2" value="&lt;font color=&quot;#1a1a1a&quot;&gt;&lt;b&gt;DAC&lt;br&gt;&lt;br&gt;&lt;br&gt;&lt;br&gt;&lt;br&gt;&lt;br&gt;&lt;br&gt;&lt;br&gt;&lt;br&gt;&lt;br&gt;&lt;br&gt;&lt;br&gt;&lt;br&gt;&lt;br&gt;&lt;br&gt;&lt;br&gt;&lt;br&gt;&lt;br&gt;&lt;br&gt;&lt;br&gt;&lt;br&gt;&lt;br&gt;&lt;/b&gt;&lt;br&gt;&lt;/font&gt;" style="rounded=1;whiteSpace=wrap;html=1;fillColor=#f8cecc;strokeColor=#b85450;rotation=-90;gradientColor=#ea6b66;" parent="1" vertex="1">
                    <mxGeometry x="203.86" y="58.34" width="64.03" height="340.74" as="geometry"/>
                </mxCell>
                <mxCell id="3" value="&lt;font color=&quot;#1a1a1a&quot;&gt;&lt;b&gt;DAO&lt;/b&gt;&lt;br&gt;&lt;/font&gt;" style="rounded=1;whiteSpace=wrap;html=1;fillColor=#f9f7ed;strokeColor=#36393d;" parent="1" vertex="1">
                    <mxGeometry x="178" y="205.21" width="44" height="47" as="geometry"/>
                </mxCell>
                <mxCell id="6" value="&lt;font color=&quot;#828282&quot; style=&quot;font-size: 18px;&quot;&gt;&lt;b style=&quot;&quot;&gt;Arquitectura N-TIER&amp;nbsp;&lt;/b&gt;&lt;/font&gt;&lt;div&gt;&lt;span style=&quot;font-size: 18px;&quot;&gt;&lt;b&gt;SISTEMA DE ASISTENCIA&lt;/b&gt;&lt;/span&gt;&lt;/div&gt;" style="text;html=1;strokeColor=none;fillColor=none;align=center;verticalAlign=middle;whiteSpace=wrap;rounded=0;labelBackgroundColor=none;fontColor=#333333;" parent="1" vertex="1">
                    <mxGeometry x="64" y="-33" width="294" height="30" as="geometry"/>
                </mxCell>
                <mxCell id="18" value="&lt;font color=&quot;#1a1a1a&quot;&gt;&lt;b&gt;Data Helper&lt;/b&gt;&lt;br&gt;&lt;/font&gt;" style="rounded=1;whiteSpace=wrap;html=1;fillColor=#f9f7ed;strokeColor=#36393d;" parent="1" vertex="1">
                    <mxGeometry x="99.08000000000001" y="205.20999999999998" width="58" height="47" as="geometry"/>
                </mxCell>
                <mxCell id="10" value="&lt;font color=&quot;#1a1a1a&quot;&gt;&lt;b&gt;Framework&lt;/b&gt;&lt;br&gt;&lt;br&gt;&lt;br&gt;&lt;br&gt;&lt;br&gt;&lt;br&gt;&lt;br&gt;&lt;br&gt;&lt;br&gt;&lt;br&gt;&lt;br&gt;&lt;br&gt;&lt;br&gt;&lt;br&gt;&lt;/font&gt;" style="rounded=1;whiteSpace=wrap;html=1;fillColor=#dae8fc;strokeColor=#6c8ebf;gradientColor=#7ea6e0;" parent="1" vertex="1">
                    <mxGeometry x="417" y="19" width="124" height="244" as="geometry"/>
                </mxCell>
                <mxCell id="15" value="&lt;span style=&quot;&quot;&gt;&lt;font color=&quot;#000000&quot;&gt;&lt;b&gt;Exception&lt;/b&gt;&lt;/font&gt;&lt;/span&gt;" style="rounded=1;whiteSpace=wrap;html=1;fillColor=#f5f5f5;strokeColor=none;gradientColor=#b3b3b3;" parent="1" vertex="1">
                    <mxGeometry x="434.41" y="63" width="90.19" height="25.56" as="geometry"/>
                </mxCell>
                <mxCell id="20" value="&lt;font color=&quot;#1a1a1a&quot;&gt;&lt;b&gt;BLC&lt;br&gt;&lt;br&gt;&lt;br&gt;&lt;br&gt;&lt;br&gt;&lt;br&gt;&lt;br&gt;&lt;br&gt;&lt;br&gt;&lt;br&gt;&lt;br&gt;&lt;br&gt;&lt;br&gt;&lt;br&gt;&lt;br&gt;&lt;br&gt;&lt;br&gt;&lt;br&gt;&lt;br&gt;&lt;br&gt;&lt;br&gt;&lt;br&gt;&lt;/b&gt;&lt;br&gt;&lt;/font&gt;" style="rounded=1;whiteSpace=wrap;html=1;fillColor=#d5e8d4;strokeColor=#82b366;rotation=-90;gradientColor=#97d077;" parent="1" vertex="1">
                    <mxGeometry x="200.99" y="-19" width="66.78" height="340.74" as="geometry"/>
                </mxCell>
                <mxCell id="22" value="&lt;font color=&quot;#1a1a1a&quot;&gt;&lt;b&gt;Business Entities&lt;/b&gt;&lt;/font&gt;" style="rounded=1;whiteSpace=wrap;html=1;fillColor=#f5f5f5;strokeColor=#666666;gradientColor=#b3b3b3;" parent="1" vertex="1">
                    <mxGeometry x="102.00000000000001" y="127.35000000000001" width="63" height="47" as="geometry"/>
                </mxCell>
                <mxCell id="27" value="&lt;b style=&quot;&quot;&gt;&lt;font color=&quot;#4d4d4d&quot;&gt;Data&lt;br&gt;Sources&lt;/font&gt;&lt;/b&gt;&lt;div&gt;&lt;b style=&quot;&quot;&gt;&lt;font&gt;&lt;font color=&quot;#ababab&quot;&gt;&lt;br&gt;&lt;/font&gt;&lt;br&gt;&lt;br&gt;&lt;br&gt;&lt;br&gt;&lt;br&gt;&lt;/font&gt;&lt;br&gt;&lt;/b&gt;&lt;/div&gt;" style="rounded=1;whiteSpace=wrap;html=1;fillColor=light-dark(#FFFFFF,#006666);strokeColor=#b85450;rotation=-90;gradientColor=#ea6b66;" parent="1" vertex="1">
                    <mxGeometry x="99.08" y="237.92" width="86.37" height="149.72" as="geometry"/>
                </mxCell>
                <mxCell id="29" value="&lt;font color=&quot;#1a1a1a&quot;&gt;&lt;b&gt;UIC&lt;br&gt;&lt;br&gt;&lt;br&gt;&lt;br&gt;&lt;br&gt;&lt;br&gt;&lt;br&gt;&lt;br&gt;&lt;br&gt;&lt;br&gt;&lt;br&gt;&lt;br&gt;&lt;br&gt;&lt;br&gt;&lt;br&gt;&lt;br&gt;&lt;br&gt;&lt;br&gt;&lt;br&gt;&lt;br&gt;&lt;br&gt;&lt;/b&gt;&lt;br&gt;&lt;/font&gt;" style="rounded=1;whiteSpace=wrap;html=1;fillColor=#ffcc99;strokeColor=#36393d;rotation=-90;" parent="1" vertex="1">
                    <mxGeometry x="189" y="-107.49000000000001" width="86.37" height="340.74" as="geometry"/>
                </mxCell>
                <mxCell id="32" value="&lt;span style=&quot;color: rgb(26, 26, 26);&quot;&gt;Customer Control&lt;/span&gt;" style="rounded=1;whiteSpace=wrap;html=1;fillColor=#f5f5f5;strokeColor=#666666;gradientColor=#b3b3b3;" parent="1" vertex="1">
                    <mxGeometry x="102.00000000000001" y="30.88" width="69" height="64" as="geometry"/>
                </mxCell>
                <mxCell id="35" value="&lt;b&gt;&lt;font color=&quot;#990000&quot;&gt;SQLITE&lt;/font&gt;&lt;/b&gt;" style="verticalLabelPosition=bottom;html=1;verticalAlign=top;align=center;strokeColor=#6F0000;fillColor=#a20025;shape=mxgraph.azure.sql_reporting;fontColor=#ffffff;" parent="1" vertex="1">
                    <mxGeometry x="135.05" y="283.68" width="38.95" height="46" as="geometry"/>
                </mxCell>
                <mxCell id="41" value="&lt;font color=&quot;#1a1a1a&quot;&gt;&lt;b&gt;DTO&lt;/b&gt;&lt;br&gt;&lt;/font&gt;" style="rounded=1;whiteSpace=wrap;html=1;fillColor=#f9f7ed;strokeColor=#36393d;" parent="1" vertex="1">
                    <mxGeometry x="322.5" y="205.20999999999998" width="58" height="47" as="geometry"/>
                </mxCell>
                <mxCell id="42" value="&lt;font color=&quot;#1a1a1a&quot;&gt;&lt;b&gt;IDAO&lt;/b&gt;&lt;br&gt;&lt;/font&gt;" style="rounded=1;whiteSpace=wrap;html=1;fillColor=#f9f7ed;strokeColor=#36393d;" parent="1" vertex="1">
                    <mxGeometry x="250" y="205.20999999999998" width="44" height="47" as="geometry"/>
                </mxCell>
                <mxCell id="88" value="BLFactory" style="rounded=1;whiteSpace=wrap;html=1;fillColor=#f5f5f5;strokeColor=#666666;gradientColor=#b3b3b3;" vertex="1" parent="1">
                    <mxGeometry x="182" y="127.35000000000001" width="63" height="47" as="geometry"/>
                </mxCell>
                <mxCell id="89" value="User Control" style="rounded=1;whiteSpace=wrap;html=1;fillColor=#f5f5f5;strokeColor=#666666;gradientColor=#b3b3b3;" vertex="1" parent="1">
                    <mxGeometry x="203.86" y="30.879999999999995" width="69" height="64" as="geometry"/>
                </mxCell>
                <mxCell id="90" value="Resource" style="rounded=1;whiteSpace=wrap;html=1;fillColor=#f5f5f5;strokeColor=#666666;gradientColor=#b3b3b3;" vertex="1" parent="1">
                    <mxGeometry x="299" y="33.99999999999999" width="69" height="64" as="geometry"/>
                </mxCell>
            </root>
        </mxGraphModel>
    </diagram>
</mxfile>